# xmcd
#
# Track frame offsets: 
#        150
#        11578
#        51904
#        70265
#        86894
#        99274
#        117489
#        136910
#        148985
#        163035
#        177099
#        192439
#        211041
#        230327
#        242159
#        259983
#
# Disc length: 3669 seconds
#
# Revision: 2
# Processed by: cddbd v1.5.2PL0 Copyright (c) Steve Scherf et al.
# Submitted via: ExactAudioCopy v1.0b3
#
DISCID=e70e5310
DTITLE=Martinho Da Vila - 4.5 Atual
DYEAR=2012
DGENRE=Brasil-Samba
TTITLE0=Menina Moça
TTITLE1=Boa Noite - Carnaval De Ilusões - Caramba
TTITLE2=Casa De Bamba
TTITLE3=O Pequeno Burguês
TTITLE4=Quatro Séculos De Modas E Costumes
TTITLE5=Ya Yá Do Cais Dourado
TTITLE6=Quem É Do Mar Não Enjoa
TTITLE7=Amor, Pra Que Nasceu?
TTITLE8=Brasil Mulato
TTITLE9=Tom Maior
TTITLE10=Pra Que Dinheiro?
TTITLE11=Parei Na Sua - Nhêm, Nhêm, Nhêm
TTITLE12=Grande Amor
TTITLE13=Samba Dos Passarinhos
TTITLE14=Pãozinho De Açúcar
TTITLE15=Partido-Alto De Roda
EXTD=
EXTT0=
EXTT1=
EXTT2=
EXTT3=
EXTT4=
EXTT5=
EXTT6=
EXTT7=
EXTT8=
EXTT9=
EXTT10=
EXTT11=
EXTT12=
EXTT13=
EXTT14=
EXTT15=
PLAYORDER=
